<?xml version="1.0" encoding="utf-8"?>
<!-- Generator: Adobe Illustrator 16.0.0, SVG Export Plug-In . SVG Version: 6.00 Build 0)  -->
<!DOCTYPE svg PUBLIC "-//W3C//DTD SVG 1.1//EN" "http://www.w3.org/Graphics/SVG/1.1/DTD/svg11.dtd">
<svg version="1.1" id="Layer_1" xmlns="http://www.w3.org/2000/svg" xmlns:xlink="http://www.w3.org/1999/xlink" x="0px" y="0px"
	 width="100px" height="100px" viewBox="0 0 100 100" enable-background="new 0 0 100 100" xml:space="preserve">
<path fill="#FFFFFF" d="M100,69.23C100,86.224,86.224,100,69.23,100H30.77C13.775,100,0,86.224,0,69.23V30.77
	C0,13.775,13.775,0,30.77,0H69.23C86.224,0,100,13.775,100,30.77V69.23z"/>
<path fill="#FFFFFF" d="M50,18c0,0-19.662,20.85-19.662,37.691c0,16.84,8.25,23.294,19.662,23.294
	c11.411,0,19.662-6.454,19.662-23.294C69.662,38.85,50,18,50,18z M51.014,73.5c-0.991,0,2.833-1.5,6.578-7.75
	c3.439-5.739,1.172-26.25,1.172-26.25C63.615,42,71.264,73.5,51.014,73.5z"/>
<path fill="#FFFFFF" d="M49.455,27.731l13.085-0.688c3.124,0,5.46,2.676,5.46,5.799v41.484C68,77.45,67.344,78,64.22,78H49"/>
<path fill="#FFFFFF" d="M49.523,32.842l22.71,5.893c0,0,4.242,1.887,5.421-2.945s1.414-6.246,1.414-6.246s0-2.461-3.535-3.47
	c-3.536-1.009-11.237-3.13-11.237-3.13s-5.026-2.121-7.384,0c-2.356,2.122-2.828,4.128-7.86,4.073"/>
<path fill="#FFFFFF" d="M49.463,27.731l-13.781-0.688c-3.123,0-5.682,2.676-5.682,5.799v41.484C30,77.45,31.55,78,34.674,78H49"/>
<path fill="#FFFFFF" d="M49.37,32.842l-22.71,5.893c0,0-4.243,1.887-5.422-2.945c-1.178-4.832-1.414-6.246-1.414-6.246
	s0-2.461,3.535-3.47c3.536-1.009,11.238-3.13,11.238-3.13s5.025-2.121,7.383,0c2.356,2.122,2.356,4.128,7.39,4.073"/>
<rect x="46" y="27" fill="#FFFFFF" width="7" height="51"/>
<rect x="18" y="64" fill="#FFFFFF" width="65" height="7"/>
<rect x="76" y="52" fill="#FFFFFF" width="7" height="29"/>
<rect x="18" y="47" fill="#FFFFFF" width="7" height="34"/>
<circle fill="#FFFFFF" cx="32.75" cy="51.917" r="5.417"/>
<path fill="#FFFFFF" d="M68.375,50C63.25,50,45,50,45,50v13h28v-8.709C73,54.291,73.5,50,68.375,50z"/>
<rect x="39" y="52" fill="#FFFFFF" width="5" height="8"/>
<rect x="30" y="58" fill="#FFFFFF" width="11" height="5"/>
<circle fill="#FFFFFF" cx="41.5" cy="52" r="2.5"/>
<circle fill="#FFFFFF" cx="29.5" cy="60.5" r="2.5"/>
<ellipse fill="#FFFFFF" cx="41.5" cy="60.25" rx="2.5" ry="2.75"/>
<circle fill="#FFFFFF" cx="79.5" cy="51.917" r="3.5"/>
<circle fill="#FFFFFF" cx="21.5" cy="46.917" r="3.5"/>
<rect x="62.073" y="7.958" transform="matrix(-0.5 0.866 -0.866 -0.5 119.9752 -19.347)" fill="#FFFFFF" width="6.999" height="34"/>
<circle fill="#FFFFFF" cx="50.777" cy="16.417" r="3.5"/>
<circle fill="#FFFFFF" cx="80.223" cy="33.417" r="3.5"/>
<rect x="31.928" y="7.958" transform="matrix(0.5 0.866 -0.866 0.5 39.3265 -18.2023)" fill="#FFFFFF" width="6.999" height="34"/>
<circle fill="#FFFFFF" cx="50.223" cy="16.417" r="3.5"/>
<circle fill="#FFFFFF" cx="20.777" cy="33.417" r="3.5"/>
<rect x="24.554" y="41.717" transform="matrix(0.931 -0.3649 0.3649 0.931 -18.9177 14.6494)" fill="#FFFFFF" width="9.489" height="31.315"/>
<rect x="65.193" y="25.788" transform="matrix(0.931 -0.3649 0.3649 0.931 -10.301 28.3801)" fill="#FFFFFF" width="9.489" height="31.314"/>
<path fill="#FFFFFF" d="M30.652,40.027L42.08,69.182l26.504-10.389L57.156,29.638L30.652,40.027z M45.996,63.57
	c-1.22,0.478-2.596-0.123-3.074-1.344c-0.479-1.22,0.123-2.596,1.343-3.074c1.22-0.479,2.596,0.123,3.074,1.343
	S47.216,63.092,45.996,63.57z M42.533,54.734c-1.22,0.479-2.596-0.122-3.074-1.342c-0.478-1.221,0.123-2.597,1.343-3.075
	c1.22-0.478,2.596,0.123,3.074,1.342C44.354,52.881,43.753,54.257,42.533,54.734z M39.07,45.9c-1.22,0.479-2.596-0.123-3.075-1.343
	c-0.478-1.22,0.124-2.596,1.343-3.075c1.22-0.478,2.596,0.124,3.074,1.343C40.891,44.046,40.29,45.422,39.07,45.9z M53.947,60.453
	c-1.221,0.479-2.596-0.123-3.075-1.343c-0.478-1.22,0.123-2.597,1.343-3.075c1.22-0.478,2.597,0.123,3.074,1.344
	C55.768,58.598,55.167,59.975,53.947,60.453z M50.484,51.619c-1.22,0.478-2.597-0.124-3.075-1.344
	c-0.479-1.22,0.123-2.596,1.343-3.074c1.22-0.478,2.596,0.123,3.074,1.343C52.305,49.764,51.704,51.141,50.484,51.619z
	 M47.021,42.784c-1.22,0.478-2.597-0.123-3.075-1.343c-0.479-1.22,0.123-2.597,1.342-3.075c1.22-0.478,2.597,0.123,3.075,1.343
	C48.842,40.929,48.241,42.306,47.021,42.784z M61.898,57.336c-1.22,0.479-2.597-0.123-3.074-1.343
	c-0.479-1.22,0.123-2.596,1.343-3.075c1.22-0.478,2.597,0.124,3.074,1.344C63.719,55.482,63.119,56.857,61.898,57.336z
	 M58.436,48.501c-1.221,0.479-2.597-0.123-3.074-1.343c-0.479-1.22,0.122-2.596,1.342-3.074c1.221-0.479,2.598,0.123,3.075,1.342
	C60.256,46.647,59.655,48.023,58.436,48.501z M54.973,39.667c-1.221,0.478-2.597-0.123-3.074-1.343
	c-0.479-1.22,0.122-2.596,1.342-3.074c1.221-0.479,2.597,0.123,3.075,1.343C56.793,37.813,56.191,39.188,54.973,39.667z"/>
<g>
	<path fill="#FFFFFF" d="M30.921,48.514c-1.605-4.097-6.271-6.134-10.368-4.529l-7.19,2.819c-4.097,1.605-6.134,6.271-4.529,10.368
		l5.589,14.258c1.605,4.097,6.271,6.135,10.368,4.528l7.19-2.817c4.097-1.606,6.134-6.271,4.529-10.368L30.921,48.514z"/>
</g>
<g>
	<path fill="#FFFFFF" d="M67.255,25.68c-4.097,1.605-6.135,6.271-4.528,10.368l5.588,14.257c1.606,4.097,6.271,6.135,10.368,4.528
		l6.307-2.472c4.097-1.605,6.135-6.271,4.528-10.368L83.93,27.736c-1.606-4.097-6.271-6.134-10.368-4.529L67.255,25.68z"/>
</g>
<rect x="29" y="42" fill="#FFFFFF" width="9" height="42"/>
<ellipse fill="#FFFFFF" cx="33.5" cy="83.843" rx="4.5" ry="3.958"/>
<rect x="63" y="40.269" fill="#FFFFFF" width="9" height="43.094"/>
<ellipse fill="#FFFFFF" cx="67.488" cy="83.843" rx="4.5" ry="3.958"/>
<rect x="58" y="18" fill="#FFFFFF" width="14" height="43"/>
<ellipse fill="#FFFFFF" cx="65" cy="18.438" rx="7" ry="6.156"/>
<path fill="#FFFFFF" d="M41,14.504V30h-3V14h-3v16h-3V14h-3v16h-3V14.657c-2.226,0.979-3,3.844-3,7.289v13.502
	C23,39.708,26.513,43,30.477,43h6.58C41.021,43,44,39.708,44,35.447V21.945C44,18.298,43.226,15.296,41,14.504z"/>
<linearGradient id="SVGID_1_" gradientUnits="userSpaceOnUse" x1="108.5293" y1="71.1025" x2="-30.9055" y2="20.8295">
	<stop  offset="0" style="stop-color:#4D5456"/>
	<stop  offset="0.6126" style="stop-color:#830094;stop-opacity:0.7665"/>
	<stop  offset="0.6665" style="stop-color:#850496;stop-opacity:0.6598"/>
	<stop  offset="0.7158" style="stop-color:#8A0F9A;stop-opacity:0.5622"/>
	<stop  offset="0.7634" style="stop-color:#9321A2;stop-opacity:0.468"/>
	<stop  offset="0.8099" style="stop-color:#A03CAD;stop-opacity:0.3761"/>
	<stop  offset="0.8557" style="stop-color:#B05DBB;stop-opacity:0.2856"/>
	<stop  offset="0.9008" style="stop-color:#C587CD;stop-opacity:0.1963"/>
	<stop  offset="0.9454" style="stop-color:#DCB8E1;stop-opacity:0.1079"/>
	<stop  offset="0.9887" style="stop-color:#F7EFF8;stop-opacity:0.0224"/>
	<stop  offset="1" style="stop-color:#FFFFFF;stop-opacity:0"/>
</linearGradient>
<path fill="url(#SVGID_1_)" d="M100,69.23C100,86.224,86.224,100,69.23,100H30.77C13.776,100,0,86.224,0,69.23V30.77
	C0,13.776,13.776,0,30.77,0H69.23C86.224,0,100,13.776,100,30.77V69.23z"/>
<circle fill="#FFFFFF" cx="49.795" cy="49.705" r="7.067"/>
<circle fill="#FFFFFF" cx="26.863" cy="49.705" r="7.067"/>
<circle fill="#FFFFFF" cx="72.727" cy="49.705" r="7.068"/>
</svg>
